<svg data-v-0dd9719b="" version="1.0" xmlns="http://www.w3.org/2000/svg" xmlns:xlink="http://www.w3.org/1999/xlink" width="100%" height="100%" viewBox="0 0 340.000000 250.000000" preserveAspectRatio="xMidYMid meet" color-interpolation-filters="sRGB" style="margin: auto;"> <rect data-v-0dd9719b="" x="0" y="0" width="100%" height="100%" fill="#fff" fill-opacity="1" class="background"></rect> <rect data-v-0dd9719b="" x="0" y="0" width="100%" height="100%" fill="url(#watermark)" fill-opacity="1" class="watermarklayer"></rect> <g data-v-0dd9719b="" fill="#333" class="icon-text-wrapper icon-svg-group iconsvg" transform="translate(54.55500030517578,97.64146614074707)"><g class="iconsvg-imagesvg" transform="translate(0,0)"><g><rect fill="#333" fill-opacity="0" stroke-width="2" x="0" y="0" width="60" height="54.71706716519995" class="image-rect"></rect> <svg x="0" y="0" width="60" height="54.71706716519995" filtersec="colorsb2344470381" class="image-svg-svg primary" style="overflow: visible;"><svg xmlns="http://www.w3.org/2000/svg" viewBox="0.007376670837402344 0.017479896545410156 109.63544464111328 99.98246765136719"><g fill-rule="evenodd"><path d="M46.12 21.84c-2.94-8.25-7.27-15.43-1.06-17.59C53.49 1.3 60.41-3 62.64 3.15c3 8.39 7.23 15.37 1.06 17.6L52.39 24.8c-10.91 3.9-8.55 23-5.62 31.19C54.16 76.67 23 87.73 15.59 67.14A16.58 16.58 0 0 1 25.61 46c3.09 0 23.98-14.41 20.51-24.16z" fill="#104e70"></path><path d="M83.51 43C82 51 84.92 71.28 93.82 73c8.39 1.62 17 1.62 15.69 8-1.83 9.17-1.67 16.89-8 15.7-8.37-1.59-16.91-1.65-15.69-8l2.28-11.82c2.18-11.39-15.46-19.05-24-20.7A16.53 16.53 0 0 1 51 36.77C55.1 15.24 87.68 21.51 83.51 43z" fill="#2491eb"></path><path d="M25.67 89.11c-6.16 7.08-10 13.8-14.81 9.58-7-6.13-13.74-9.91-9.57-14.79 4.8-5.62 9.76-14 14.8-9.58l9.08 7.9c8.74 7.57 24.23-3.87 29.9-10.44a16.58 16.58 0 0 1 23.38-1.65c16.57 14.44-5.21 39.37-21.72 25 2.5.04-23.48-14.74-31.06-6.02z" fill="#85c4f5"></path></g></svg></svg> <!----></g></g> <g transform="translate(67,3.687284469604492)"><g data-gra="path-name" fill-rule="" class="tp-name iconsvg-namesvg" transform="translate(0,0)"><g transform="scale(1)"><g><path d="M4.63-16.61L10.75-16.61 9.09-4.86 11.56-5.17 13.63-19.93 3.46-19.93 4.05-24.21 25.83-24.21 25.33-30.42 23.94-31.99 33.34-31.99 33.84-24.21 40.68-24.21 40.09-19.93 34.11-19.93 35.1-4.63 37.21-4.63 39.2-6.34 38.2 0.4 27.9 0.4 26.19-19.93 20.52-19.93 19.8-14.89 24.97-14.89 24.39-10.71 19.21-10.71 18.59-6.03 23.94-6.71 23.31-2.29 0.63 0.4 1.26-3.92 2.83-4.09 4.63-16.61ZM6.61-30.2L23.76-30.2 23.18-25.92 6.03-25.92 6.61-30.2ZM40.73-25.2L34.92-25.2 34.78-30.2 40.59-30.2 40.73-25.2ZM57.38-25.11L65.88-25.11 65.47-22.14 68.08-17.86 73.8-24.75 74.07-26.59 57.64-26.59 58.27-31.05 82.31-31.05 81.27-23.54 71.82-11.88 79.47 0.4 70.88 0.4 66.96-5.89 61.88 0.36 52.96 0.36 63.18-11.97 56.97-22.05 57.38-25.11ZM49.55 0.4L41.85 0.4 46.21-12.33 53.91-12.33 49.55 0.4ZM54.63-14.04L46.94-14.04 46.3-21.73 54-21.73 54.63-14.04ZM55.94-23.45L48.24-23.45 47.61-31.14 55.3-31.14 55.94-23.45ZM83.52-3.82L89.37-4.59 90.41-12.15 84.64-12.15 86.8-27.58 92.56-27.58 92.97-30.24 91.39-31.9 99.27-31.9 98.64-27.58 104.63-27.58 102.47-12.15 96.48-12.15 95.53-5.4 96.97-5.58 96.88-10.44 101.2-10.44 101.43 0.36 97.06 0.36 97.02-1.44 82.94 0.32 83.52-3.82ZM102.6-4.91L108.04-4.91 110.97-25.83 106.11-25.83 106.74-30.29 124.02-30.29 123.39-25.83 118.89-25.83 115.97-4.91 121.32-4.91 120.69-0.4 101.97-0.4 102.6-4.91ZM89.73-16.25L90.99-16.25 92.02-23.49 90.72-23.49 89.73-16.25ZM99.36-23.49L98.05-23.49 97.06-16.25 98.37-16.25 99.36-23.49ZM127.8-17.86L142.33-17.86 144.09-30.24 142.6-31.95 152.86-31.95 150.88-17.86 163.71-17.86 163.13-13.63 157.95-13.63 156.78-5.04 161.05-5.04 162.99-6.75 162.04 0 147.42 0.04 149.4-13.63 141.66-13.63 133.83 0 125.28 0 133.11-13.63 127.21-13.63 127.8-17.86ZM152.77-19.17L156.69-28.53 155.52-29.83 164.52-29.83 160.02-19.17 152.77-19.17ZM139.32-29.83L140.8-19.17 133.56-19.17 132.21-28.57 131.13-29.83 139.32-29.83Z" transform="translate(-0.6299999952316284, 31.989999771118164)"></path></g> <!----> <!----> <!----> <!----> <!----> <!----> <!----></g></g> <g data-gra="path-slogan" fill-rule="" class="tp-slogan iconsvg-slogansvg" fill="#333" transform="translate(5,38.38999938964844)"><rect x="0" height="1" y="3.9750003814697266" width="10.360000610351562"></rect> <rect height="1" y="3.9750003814697266" width="10.360000610351562" x="143.52999877929688"></rect> <g transform="translate(13.360000610351562,0)"><g transform="scale(1)"><path d="M5.67-7.13L5.63-7.13L3.66 0L2.44 0L0.19-8.58L1.41-8.58L3.05-1.59L3.09-1.59L5.02-8.58L6.28-8.58L8.20-1.59L8.25-1.59L9.84-8.58L11.11-8.58L8.86 0L7.64 0L5.67-7.13ZM17.86-3.19L17.86-8.58L19.03-8.58L19.03-3.05Q18.89 0.05 15.52 0.14L15.52 0.14Q12.38 0.05 12.23-2.86L12.23-2.86L12.23-8.58L13.41-8.58L13.41-3.19Q13.45-0.84 15.56-0.80L15.56-0.80Q17.86-0.84 17.86-3.19L17.86-3.19ZM21.98-5.06L26.48-5.06L26.48-8.58L27.66-8.58L27.66 0L26.48 0L26.48-3.98L21.98-3.98L21.98 0L20.81 0L20.81-8.58L21.98-8.58L21.98-5.06ZM35.11 0L34.27-2.48L30.80-2.48L29.91 0L28.73 0L31.97-8.58L33.28-8.58L36.38 0L35.11 0ZM32.53-7.31L31.17-3.52L33.84-3.52L32.58-7.31L32.53-7.31ZM38.81-8.58L43.13-1.64L43.13-8.58L44.25-8.58L44.25 0L42.94 0L38.58-6.94L38.53-6.94L38.53 0L37.41 0L37.41-8.58L38.81-8.58ZM50.53-5.06L55.03-5.06L55.03-8.58L56.20-8.58L56.20 0L55.03 0L55.03-3.98L50.53-3.98L50.53 0L49.36 0L49.36-8.58L50.53-8.58L50.53-5.06ZM64.78-4.27L64.78-4.27Q64.59-7.64 61.78-7.83L61.78-7.83Q58.92-7.69 58.78-4.27L58.78-4.27Q58.92-0.94 61.78-0.80L61.78-0.80Q64.59-0.98 64.78-4.27ZM65.95-4.27L65.95-4.27Q65.67 0 61.78 0.14L61.78 0.14Q57.84 0 57.56-4.27L57.56-4.27Q57.80-8.72 61.78-8.81L61.78-8.81Q65.67-8.67 65.95-4.27ZM68.72-8.58L73.03-1.64L73.03-8.58L74.16-8.58L74.16 0L72.84 0L68.48-6.94L68.44-6.94L68.44 0L67.31 0L67.31-8.58L68.72-8.58ZM82.36-3.61L79.73-3.61L79.73-4.59L83.48-4.59L83.48 0L82.73 0L82.45-1.08Q81.47 0.09 79.64 0.14L79.64 0.14Q77.91 0.14 76.97-0.75L76.97-0.75Q75.56-2.06 75.61-4.36L75.61-4.36Q75.94-8.63 79.69-8.81L79.69-8.81Q82.88-8.63 83.34-6L83.34-6L82.22-6Q81.75-7.78 79.64-7.83L79.64-7.83Q76.97-7.64 76.83-4.31L76.83-4.31Q76.83-0.75 79.69-0.75L79.69-0.75Q80.72-0.75 81.47-1.31L81.47-1.31Q82.41-2.06 82.36-3.61L82.36-3.61ZM91.69-3.61L89.06-3.61L89.06-4.59L92.81-4.59L92.81 0L92.06 0L91.78-1.08Q90.80 0.09 88.97 0.14L88.97 0.14Q87.23 0.14 86.30-0.75L86.30-0.75Q84.89-2.06 84.94-4.36L84.94-4.36Q85.27-8.63 89.02-8.81L89.02-8.81Q92.20-8.63 92.67-6L92.67-6L91.55-6Q91.08-7.78 88.97-7.83L88.97-7.83Q86.30-7.64 86.16-4.31L86.16-4.31Q86.16-0.75 89.02-0.75L89.02-0.75Q90.05-0.75 90.80-1.31L90.80-1.31Q91.73-2.06 91.69-3.61L91.69-3.61ZM100.27-3.19L100.27-8.58L101.44-8.58L101.44-3.05Q101.30 0.05 97.92 0.14L97.92 0.14Q94.78 0.05 94.64-2.86L94.64-2.86L94.64-8.58L95.81-8.58L95.81-3.19Q95.86-0.84 97.97-0.80L97.97-0.80Q100.27-0.84 100.27-3.19L100.27-3.19ZM108.89 0L108.05-2.48L104.58-2.48L103.69 0L102.52 0L105.75-8.58L107.06-8.58L110.16 0L108.89 0ZM106.31-7.31L104.95-3.52L107.63-3.52L106.36-7.31L106.31-7.31ZM112.59-8.58L116.91-1.64L116.91-8.58L118.03-8.58L118.03 0L116.72 0L112.36-6.94L112.31-6.94L112.31 0L111.19 0L111.19-8.58L112.59-8.58ZM126.23-3.61L123.61-3.61L123.61-4.59L127.36-4.59L127.36 0L126.61 0L126.33-1.08Q125.34 0.09 123.52 0.14L123.52 0.14Q121.78 0.14 120.84-0.75L120.84-0.75Q119.44-2.06 119.48-4.36L119.48-4.36Q119.81-8.63 123.56-8.81L123.56-8.81Q126.75-8.63 127.22-6L127.22-6L126.09-6Q125.63-7.78 123.52-7.83L123.52-7.83Q120.84-7.64 120.70-4.31L120.70-4.31Q120.70-0.75 123.56-0.75L123.56-0.75Q124.59-0.75 125.34-1.31L125.34-1.31Q126.28-2.06 126.23-3.61L126.23-3.61Z" transform="translate(-0.1875, 8.8125)"></path></g></g></g></g></g><defs v-gra="od"></defs></svg>